<?xml version="1.0" encoding="UTF-8" standalone="no"?>
<!-- Created with Inkscape (http://www.inkscape.org/) -->

<svg
   width="134.80779mm"
   height="135.06366mm"
   viewBox="0 0 134.80779 135.06366"
   version="1.1"
   id="svg1"
   xmlns="http://www.w3.org/2000/svg"
   xmlns:svg="http://www.w3.org/2000/svg">
  <defs
     id="defs1">
    <clipPath
       clipPathUnits="userSpaceOnUse"
       id="clipPath99">
      <path
         id="path99"
         d="m 787.52307,293.40765 c 35.20331,21.3469 40.55786,64.92261 11.75525,93.93927 -19.94281,20.09098 -39.98993,40.07846 -59.99976,60.10279 -4.29156,4.29468 -4.32,4.27881 -5.96618,-1.82322 -8.02057,-29.73016 -15.99146,-59.47381 -24.07709,-89.1863 -2.66907,-9.80829 -6.06842,-19.39161 -10.19391,-28.68229 -1.27649,-2.87466 -0.9989,-4.76287 1.31781,-6.96099 6.40045,-6.07285 12.43152,-12.53614 18.85572,-18.58252 18.73211,-17.63065 45.28485,-21.07779 68.30816,-8.80674 z m 59.01514,522.02607 c 29.34979,7.74487 58.2785,15.49456 87.30292,22.86743 7.71398,1.95953 15.72375,2.75128 23.59313,4.10522 1.74445,0.30005 3.73878,0.17121 4.28321,2.59497 2.6579,11.83246 7.38415,23.20404 8.41601,35.38593 2.57032,30.34741 -17.604,57.41235 -46.69073,62.94739 -30.45691,5.79577 -59.14343,-11.55866 -67.67725,-41.65992 -8.07788,-28.49328 -15.3836,-57.20495 -23.1593,-85.78509 -1.0509,-3.86292 -0.1308,-4.44434 3.41309,-3.26422 3.30767,1.1015 6.75036,1.79748 10.51892,2.80829 z M 551.74158,1008.2046 c -17.01154,-25.1258 -14.19422,-55.16505 7.03613,-76.44825 20.22223,-20.27265 40.52325,-40.46674 60.79773,-60.68732 4.00561,-3.99505 4.02271,-3.97833 5.50256,1.39386 8.97388,32.57898 16.8996,65.44617 26.71765,97.79047 2.17072,7.15118 5.01917,14.11297 7.86243,21.03589 1.12366,2.7359 0.86231,4.50256 -1.29169,6.55462 -6.02533,5.74023 -11.7503,11.79543 -17.76446,17.54793 -26.435,25.2846 -66.33655,22.1512 -88.86035,-7.1872 z m 349.7431,-400.71192 c -3.92883,-1.06781 -7.45337,-2.0727 -11.00598,-2.96552 -2.41058,-0.6059 -2.63574,-1.59808 -0.88086,-3.30048 2.51019,-2.43499 4.97302,-4.91955 7.42572,-7.41278 22.30609,-22.67395 45.56207,-44.41034 67.1236,-67.81537 4.61718,-5.01196 8.77185,-10.46136 12.97332,-15.83908 1.53266,-1.96164 2.96418,-2.67517 5.48743,-1.94131 9.11029,2.64969 18.41729,4.6792 27.41189,7.66119 43.4817,14.41541 54.8113,69.09919 20.4139,99.38477 -15.7659,13.88147 -34.52135,17.39166 -54.73143,12.13483 -24.65656,-6.41333 -49.22101,-13.18116 -74.21759,-19.90625 z m -478.44074,94.47387 c 14.71494,3.90424 29.00898,7.80286 43.36036,11.47748 4.0234,1.03009 4.58291,2.02057 1.42797,5.14795 -19.16583,18.99829 -38.13159,38.19824 -57.27352,57.22083 -10.29535,10.23107 -20.08655,20.88507 -28.83023,32.48083 -1.21335,1.60907 -2.29065,3.32703 -4.81784,2.53168 -12.82236,-4.03528 -26.39441,-5.69263 -38.45768,-12.13526 -25.78961,-13.77325 -37.10534,-45.20776 -26.29071,-73.0318 10.42774,-26.82873 40.58518,-42.25946 68.49912,-34.97412 14.01358,3.65747 27.99008,7.45685 42.38253,11.28241 z m 18.50177,-327.55429 c 28.86588,-1.62091 53.01581,14.59293 61.03766,42.04486 8.40363,28.75852 15.63373,57.85898 23.49286,86.77848 1.32453,4.87396 -1.27246,3.55377 -3.81976,2.86798 -27.97012,-7.53019 -55.95148,-15.0185 -83.91421,-22.57578 -12.23533,-3.30673 -24.64188,-5.7103 -37.20054,-7.34555 -2.0953,-0.27286 -3.70862,-0.59296 -4.34747,-3.15167 -2.49841,-10.00635 -5.76511,-19.84925 -7.75983,-29.94773 -6.03396,-30.54751 14.94748,-64.71652 52.51129,-68.67059 z m 173.6681,-158.49359 c -5.84974,-1.14276 -9.40577,-5.40804 -13.77228,-8.29213 -8.8349,-5.83542 -8.59894,-5.83887 -1.31958,-13.43991 34.14429,-35.65323 75.63196,-57.54414 124.24402,-65.43997 48.27679,-7.84136 94.4143,-0.48204 137.52142,22.77774 57.56152,31.05903 95.07898,78.76398 110.09015,142.1443 17.3772,73.37021 0.19458,139.7262 -49.60816,196.297 -31.25933,35.50732 -66.57586,67.24328 -99.8468,100.89538 -7.50085,7.5868 -8.19116,8.32343 0.15296,14.91706 10.03802,7.93225 12.37146,16.20032 7.61236,28.15722 -3.97497,9.98682 -2.99975,10.35981 7.27167,13.08649 42.98383,11.41065 85.84332,23.31769 128.98096,34.11359 45.84497,11.47345 95.24867,-8.66895 120.24227,-47.89978 26.7273,-41.95203 24.2609,-94.1156 -6.1231,-132.21305 -16.9951,-21.30951 -39.0602,-34.28335 -65.3501,-40.61868 -8.0194,-1.93253 -7.4338,-1.06613 -4.3958,-8.47302 2.2727,-5.54074 4.4296,-11.12891 6.8898,-16.97452 2.0956,-2.09341 4.2905,-1.58041 6.3778,-1.04834 23.6284,6.02258 44.8086,16.54868 62.8436,33.28329 19.0033,17.63321 32.6109,38.52381 40.1797,63.35346 6.683,21.92389 8.0105,44.18726 3.6123,66.6178 -5.8703,29.93945 -19.6617,55.84002 -42.068,76.64935 -23.8075,22.11066 -51.9676,34.57721 -84.575,37.70471 -20.21349,1.93885 -39.45983,-1.5202 -58.63292,-6.72479 -30.37317,-8.24487 -60.78046,-16.36121 -91.17115,-24.54022 -8.84368,-2.38007 -17.72137,-4.63794 -26.53021,-7.13965 -3.75928,-1.06769 -5.80945,-0.3963 -6.93439,3.75165 -3.3562,12.37487 -6.74353,24.74164 -9.91552,37.16467 -1.3266,5.19556 -0.78546,5.98975 4.41662,7.39996 39.85779,10.80555 79.8454,21.14441 119.59888,32.31507 22.3952,6.29309 45.00116,9.1065 68.12489,7.93512 22.4977,-1.13959 44.1825,-6.237 64.7598,-15.36011 23.5106,-10.42359 44.5745,-24.48615 62.3909,-43.28626 17.7744,-18.75585 31.1452,-40.16583 40.4492,-64.22723 10.3386,-26.73657 14.1298,-54.53302 11.7671,-82.88708 -3.3251,-39.90595 -17.9413,-75.52912 -43.6703,-106.42109 -22.5957,-27.12985 -50.5072,-46.62622 -83.8304,-58.3121 -6.2835,-2.20352 -12.726,-3.93304 -19.1152,-5.81366 -1.7803,-0.52408 -3.5762,-0.90787 -4.6613,-3.10825 -0.5408,-8.39913 1.172,-16.2738 1.505,-24.2423 0.1004,-2.4036 1.5475,-1.94202 3.1379,-1.53907 18.1052,4.58728 35.9848,9.87131 52.6812,18.41864 60.07,30.75159 99.3697,78.8173 116.0632,144.02338 24.8936,97.23657 -21.3351,198.48779 -110.9681,245.89063 -36.2157,19.15289 -75.0396,26.92272 -115.78721,24.88403 -23.77026,-1.18921 -46.51758,-7.97339 -69.34033,-14.17059 -34.37726,-9.33454 -68.82556,-18.40858 -103.17676,-27.83716 -4.51788,-1.24006 -6.20984,-0.28876 -7.10931,4.18035 -1.18042,5.86524 -3.1001,11.57783 -4.4599,17.41248 -0.61255,2.62842 -1.96357,3.88983 -4.54004,4.49902 -5.99189,1.41663 -11.87744,3.31696 -17.90308,4.54493 -4.16095,0.84808 -4.79297,2.487 -3.69574,6.50329 9.47858,34.69269 18.64081,69.4718 28.07965,104.17554 4.01465,14.76056 6.96918,29.85626 13.39655,43.89136 20.78961,45.39685 70.09344,72.48768 118.60742,65.14233 51.20788,-7.75323 89.76485,-46.75122 96.51645,-97.50824 2.351,-17.67438 0.255,-34.89508 -5.0127,-51.78943 -1.2441,-3.98981 -1.1538,-5.90155 3.9107,-6.14172 6.6178,-0.31384 13.188,-1.63178 20.1844,-2.4306 2.7266,0.71014 3.2648,2.70819 3.796,4.62817 12.9894,46.95093 5.1449,89.86481 -24.6955,128.64178 -16.5477,21.50354 -37.98347,36.17639 -63.21522,45.34889 -12.5257,4.5535 -25.58264,6.8749 -39.03595,7.6887 -25.59143,1.548 -49.73578,-3.3643 -72.3501,-15.047 -36.52447,-18.86894 -60.5664,-48.44267 -71.74554,-87.89952 -11.70807,-41.32373 -22.45508,-82.91876 -33.47205,-124.43549 -2.61615,-9.85895 -2.75683,-9.86505 -12.52563,-7.12048 -10.57843,2.97192 -21.23828,5.64703 -31.86786,8.43213 -5.73877,1.5036 -6.21118,2.49054 -4.75,8.02203 9.82172,37.18366 20.03644,74.26337 29.69214,111.48975 5.8786,22.66461 13.08905,44.73578 25.37109,64.87378 22.93305,37.6014 55.02716,64.1863 96.17304,79.7587 24.92865,9.4347 50.87652,13.4066 77.41998,12.0078 21.38446,-1.1272 42.17822,-5.7662 62.08111,-13.9638 23.53099,-9.692 44.70169,-23.1448 62.56089,-41.2285 30.5646,-30.94896 49.1715,-68.14391 54.7392,-111.35795 3.2596,-25.30024 1.654,-50.49848 -5.1757,-75.24268 -0.8069,-2.92334 -2.6069,-5.91437 -0.7074,-9.47937 6.7947,-5.30219 14.8469,-7.26758 22.0184,-11.02716 2.1994,-1.15308 2.237,1.22241 2.6308,2.51703 9.1705,30.14496 13.1058,60.86059 9.5125,92.29486 -5.1782,45.297 -22.2369,85.62768 -52.2536,119.98647 -37.0696,42.4319 -83.98988,67.0188 -139.8683,73.9502 C 831.17419,1116.2148 730.22388,1048.8915 701.31555,945.33173 689.0882,901.52917 677.672,857.50024 665.88818,813.57385 c -1.6969,-6.32538 -1.69354,-6.32232 -7.83227,-4.72119 -2.89893,0.7561 -5.9928,1.08209 -8.66846,2.31738 -8.25091,3.80927 -14.75262,2.30786 -20.06988,-5.22827 -1.89191,-2.68146 -4.87433,-4.56982 -6.96509,-7.14056 -2.73493,-3.36279 -4.60895,-3.42432 -7.82379,-0.14679 -16.80036,17.12805 -33.88758,33.97473 -50.86646,50.92779 -14.97449,14.95154 -30.13598,29.72205 -44.8681,44.90888 -41.56302,42.84582 -44.52396,107.38181 -5.54169,152.55031 29.98035,34.738 68.66956,46.6374 113.64874,36.4707 23.03162,-5.2058 41.7439,-17.8314 57.73505,-34.8667 4.37292,-4.6585 4.42383,-4.5289 8.17133,0.3866 3.02911,3.9731 6.22924,7.8158 9.27374,11.7776 0.95276,1.2398 2.68738,2.2163 1.85095,4.6317 0.49963,2.6765 -0.89984,4.1544 -2.31757,5.5947 -22.68255,23.043 -49.75457,37.5285 -81.91632,42.246 -22.82171,3.3474 -45.05346,1.1961 -66.84649,-6.3176 -20.01599,-6.9012 -37.3183,-17.8584 -52.48658,-32.7072 -19.38372,-18.9753 -32.32446,-41.5572 -38.27066,-67.7573 -8.84341,-38.96566 -2.4967,-75.65426 19.10761,-109.50716 4.86078,-7.61664 10.56076,-14.50727 16.9516,-20.88984 31.24631,-31.20623 62.46432,-62.44091 93.68967,-93.66821 5.24896,-5.24914 5.24414,-5.63665 0.14917,-10.72192 -8.72803,-8.71112 -17.41864,-17.45984 -26.17255,-26.14484 -3.797,-3.76721 -4.77936,-3.81701 -8.6037,-0.005 -30.5686,30.46875 -61.21521,60.86163 -91.51153,91.59979 -14.9014,15.11871 -27.68332,31.97394 -37.1449,51.09778 -9.14215,18.47821 -15.53592,37.8872 -18.30622,58.36969 -7.62704,56.39121 6.71982,106.76751 42.92502,150.45141 30.58554,36.9034 70.29917,58.8267 117.65628,65.6537 51.17688,7.3778 98.15949,-4.2081 140.41932,-34.3337 9.25311,-6.5962 17.88024,-13.8574 25.73016,-22.0684 1.57367,-1.6461 2.94134,-3.7058 5.90912,-4.0366 5.78546,1.2948 9.31134,5.5931 13.71576,8.4873 9.29449,6.1072 9.15161,6.1387 1.18939,14.2147 -28.19843,28.6018 -61.19757,49.363 -100.17639,59.5248 -70.39582,18.3522 -135.30072,6.2031 -193.07538,-38.2811 -46.47852,-35.7865 -74.15811,-83.6831 -82.06278,-141.6383 -9.53967,-69.94238 10.76682,-131.35876 59.51993,-182.46508 31.85422,-33.39173 65.05722,-65.4986 97.77484,-98.06171 2.95551,-2.94153 3.78107,-4.70172 0.15607,-7.75928 -4.57056,-3.85535 -8.50256,-8.45758 -12.88251,-12.5531 -2.09332,-1.9574 -2.64087,-3.86566 -1.81622,-6.63434 1.90179,-6.3847 3.43555,-12.87823 5.28143,-19.2807 0.7179,-2.48987 0.0342,-3.656 -2.44995,-4.30456 -46.73816,-12.20313 -92.88696,-26.9054 -140.14981,-36.78711 -64.03626,-13.38855 -124.94211,31.13049 -133.76288,95.7077 -7.58696,55.54443 27.58057,108.74469 81.80011,123.75555 3.85037,1.06592 7.67551,2.22394 11.53266,3.26398 1.92233,0.51831 2.88589,1.18976 1.88455,3.46283 -3.01377,6.84155 -5.83786,13.7666 -9.02082,20.85767 -1.76126,1.76953 -3.57604,1.58044 -5.40268,1.12799 -22.84668,-5.65821 -43.37985,-15.76062 -61.16824,-31.36188 -13.29663,-11.66187 -24.19321,-25.2088 -32.35284,-40.83295 -7.20862,-13.8031 -12.40227,-28.42474 -14.47516,-43.92279 -3.98773,-29.81457 -0.24127,-58.56372 13.79994,-85.40204 21.45271,-41.00463 55.29469,-65.69488 100.61891,-74.55871 23.70535,-4.63593 47.08268,-1.9502 70.14749,4.35052 30.19996,8.2497 60.47464,16.2204 90.68561,24.42835 9.48111,2.57592 18.95001,5.20202 28.49011,7.5509 4.89283,1.20471 5.71625,0.65643 7.09961,-4.21905 3.40918,-12.01569 6.56757,-24.10016 9.79187,-36.16571 1.51361,-5.66401 1.02649,-6.33411 -4.4234,-7.77558 -42.98349,-11.36932 -85.85794,-23.15222 -128.92541,-34.20013 -12.90805,-3.31122 -26.07975,-5.02472 -39.45114,-5.69812 -32.13291,-1.61835 -62.44043,5.00659 -91.38898,18.74823 -33.73367,16.01306 -60.1199,40.04181 -79.75603,71.76642 -14.90744,24.08489 -23.68652,50.26806 -27.14345,78.18933 -4.07786,32.93652 1.10236,64.73278 13.72075,95.3283 10.77124,26.1167 26.6505,48.80805 47.58266,67.70594 23.11389,20.86761 49.76474,35.50872 80.09659,43.20703 3.41037,0.86554 7.4797,0.71399 9.79913,4.8421 -0.43213,7.79498 -1.20065,15.2522 -1.66763,22.72827 -0.18067,2.89173 -1.20661,3.18628 -3.76114,2.57404 -34.67831,-8.31116 -66.68585,-22.26209 -94.14012,-45.39301 -54.59981,-46.00183 -82.49872,-104.86273 -80.52953,-176.23773 2.53327,-91.82056 61.07121,-169.9173 147.96533,-200.04602 43.51242,-15.08698 87.50687,-15.48376 131.83316,-3.38287 41.95343,11.45312 84.00788,22.53607 125.96729,33.96746 4.1814,1.13923 5.97748,0.5871 6.85791,-3.87402 1.15869,-5.87122 3.14941,-11.57336 4.51459,-17.41077 0.65411,-2.7973 2.0415,-4.20813 4.82769,-4.89074 6.30921,-1.54572 12.51856,-3.49927 18.82868,-5.04077 2.95215,-0.72113 3.65893,-1.95874 2.85571,-4.92768 -12.00952,-44.3912 -23.26806,-88.99786 -36.05017,-133.16403 -11.32098,-39.11722 -37.29413,-65.21442 -76.20505,-77.47955 -64.10345,-20.20606 -133.73043,23.44351 -144.1224,89.64969 -2.98834,19.03851 -1.13556,37.47134 4.37729,55.74871 1.68692,5.59281 1.50619,5.48114 -4.4404,6.19638 -6.27796,0.75504 -12.51404,1.85795 -19.15103,2.88187 -2.84076,-1.17563 -3.7005,-3.41476 -4.3768,-5.9191 -13.08887,-48.46853 -4.33298,-92.62964 27.75955,-131.19531 24.26404,-29.1582 56.01575,-45.36722 94.01779,-49.05942 36.10882,-3.50827 68.73364,5.6929 97.69336,27.16461 26.44726,19.60895 43.79895,45.81003 52.45935,77.54566 11.48328,42.07971 22.5329,84.27734 33.94372,126.37738 1.3324,4.91589 2.27057,5.46899 7.0401,4.17328 11.88898,-3.22974 23.8252,-6.28272 35.70215,-9.5575 6.26416,-1.72717 6.7359,-2.31964 5.00531,-8.76547 -8.24511,-30.71027 -16.44781,-61.43201 -24.74328,-92.12881 -5.42762,-20.08432 -9.91797,-40.45807 -18.23462,-59.65021 -8.87732,-20.48609 -20.62897,-39.03949 -36.08209,-55.33231 -17.18116,-18.11484 -36.72229,-32.71261 -59.42109,-43.17712 -18.32339,-8.44736 -37.49002,-13.72641 -57.48205,-15.9662 -26.96192,-3.02066 -53.52725,-0.93256 -79.45716,7.27925 -22.92202,7.25928 -43.92376,18.21441 -62.69418,33.34842 -21.84463,17.61264 -38.89944,39.1278 -51.46112,64.10348 -9.3389,18.56796 -15.00262,38.36493 -18.11078,58.9494 -4.10237,27.16886 -1.33967,53.74057 6.08866,79.98969 0.6018,2.12656 1.23373,4.18591 -0.41028,6.55594 -7.22315,3.74225 -14.31034,7.05356 -21.29976,10.55978 -2.58475,1.29663 -2.7988,-0.53122 -3.25952,-2.06167 -7.24543,-24.06775 -11.64511,-48.56705 -10.89891,-73.80842 1.31491,-44.47866 14.2734,-85.23425 40.12051,-121.51495 34.0499,-47.79462 80.13309,-77.75554 137.76245,-88.4693 69.26187,-12.87633 131.41348,3.74468 184.98593,49.63019 34.79773,29.80463 57.00013,67.85678 68.81629,112.04614 11.23529,42.01703 22.57885,84.00528 33.69446,126.05387 1.12701,4.26342 2.44854,5.94021 7.03643,4.25149 4.82947,-1.77759 10.02448,-2.55105 14.88159,-4.26758 4.30616,-1.52185 7.40485,-0.9602 10.46949,2.66864 3.6441,4.31482 8.00219,8.01844 11.86889,12.15686 2.07624,2.22217 3.4889,2.78827 5.9878,0.26758 33.20447,-33.49481 67.15857,-66.27301 99.63745,-100.45404 40.87671,-43.01892 39.39514,-111.94446 -2.03064,-154.48391 -44.46533,-45.66076 -116.35291,-46.22718 -161.5,-1.31437 -3.05072,3.03482 -5.79016,8.36304 -9.43616,8.29328 -3.73901,-0.0715 -5.69549,-5.86158 -8.33447,-9.20401 -2.53418,-3.20993 -5.87366,-5.88681 -7.18842,-10.32914 -0.73034,-3.13456 1.25202,-4.67671 2.85804,-6.30502 20.41375,-20.69707 44.69683,-34.41545 73.22216,-40.40781 34.14344,-7.17259 66.69098,-2.29449 97.12268,14.40735 28.01539,15.37571 48.39039,38.11966 61.23102,67.53367 7.70319,17.64547 11.61371,36.02453 11.60571,55.26235 -0.0133,32.06128 -9.74865,60.85215 -29.13269,86.36112 -4.42846,5.82785 -9.19537,11.38452 -14.38348,16.57407 -29.80121,29.80999 -59.62653,59.59588 -89.40826,89.42535 -5.52082,5.52966 -5.51868,5.59338 -0.10175,11.05432 8.44757,8.51618 16.92078,17.00751 25.45221,25.43958 3.90839,3.86285 4.81323,3.87524 8.57935,0.10748 31.91845,-31.93244 64.29339,-63.42322 95.64721,-95.90106 28.68079,-29.70911 45.87525,-65.57767 51.61945,-106.54538 5.97949,-42.64606 -2.09253,-82.77906 -23.38629,-120.18245 -20.49915,-36.00777 -49.75031,-62.6101 -87.38611,-79.81366 -18.90692,-8.64246 -38.85138,-13.56514 -59.62244,-15.52455 -25.70099,-2.42449 -50.88489,-0.28933 -75.46539,7.48822 -25.51971,8.0747 -48.71875,20.47783 -68.92596,38.26725 -4.5055,3.96645 -8.83063,8.09224 -13.13605,12.25812 -1.40168,1.35626 -2.67279,3.08185 -5.38275,2.85045 z"
         style="display:none" />
      <path
         id="lpe_path-effect99"
         class="powerclip"
         d="M 87.131762,66.409172 H 1270.8441 V 1252.3493 H 87.131762 Z M 787.52307,293.40765 c -23.02331,-12.27105 -49.57605,-8.82391 -68.30816,8.80674 -6.4242,6.04638 -12.45527,12.50967 -18.85572,18.58252 -2.31671,2.19812 -2.5943,4.08633 -1.31781,6.96099 4.12549,9.29068 7.52484,18.874 10.19391,28.68229 8.08563,29.71249 16.05652,59.45614 24.07709,89.1863 1.64618,6.10203 1.67462,6.1179 5.96618,1.82322 20.00983,-20.02433 40.05695,-40.01181 59.99976,-60.10279 28.80261,-29.01666 23.44806,-72.59237 -11.75525,-93.93927 z m 59.01514,522.02607 c -3.76856,-1.01081 -7.21125,-1.70679 -10.51892,-2.80829 -3.54389,-1.18012 -4.46399,-0.5987 -3.41309,3.26422 7.7757,28.58014 15.08142,57.29181 23.1593,85.78509 8.53382,30.10126 37.22034,47.45569 67.67725,41.65992 29.08673,-5.53504 49.26105,-32.59998 46.69073,-62.94739 -1.03186,-12.18189 -5.75811,-23.55347 -8.41601,-35.38593 -0.54443,-2.42376 -2.53876,-2.29492 -4.28321,-2.59497 -7.86938,-1.35394 -15.87915,-2.14569 -23.59313,-4.10522 -29.02442,-7.37287 -57.95313,-15.12256 -87.30292,-22.86743 z M 551.74158,1008.2046 c 22.5238,29.3384 62.42535,32.4718 88.86035,7.1872 6.01416,-5.7525 11.73913,-11.8077 17.76446,-17.54793 2.154,-2.05206 2.41535,-3.81872 1.29169,-6.55462 -2.84326,-6.92292 -5.69171,-13.88471 -7.86243,-21.03589 -9.81805,-32.3443 -17.74377,-65.21149 -26.71765,-97.79047 -1.47985,-5.37219 -1.49695,-5.38891 -5.50256,-1.39386 -20.27448,20.22058 -40.5755,40.41467 -60.79773,60.68732 -21.23035,21.2832 -24.04767,51.32245 -7.03613,76.44825 z m 349.7431,-400.71192 c 24.99658,6.72509 49.56103,13.49292 74.21759,19.90625 20.21008,5.25683 38.96553,1.74664 54.73143,-12.13483 34.3974,-30.28558 23.0678,-84.96936 -20.4139,-99.38477 -8.9946,-2.98199 -18.3016,-5.0115 -27.41189,-7.66119 -2.52325,-0.73386 -3.95477,-0.0203 -5.48743,1.94131 -4.20147,5.37772 -8.35614,10.82712 -12.97332,15.83908 -21.56153,23.40503 -44.81751,45.14142 -67.1236,67.81537 -2.4527,2.49323 -4.91553,4.97779 -7.42572,7.41278 -1.75488,1.7024 -1.52972,2.69458 0.88086,3.30048 3.55261,0.89282 7.07715,1.89771 11.00598,2.96552 z m -478.44074,94.47387 c -14.39245,-3.82556 -28.36895,-7.62494 -42.38253,-11.28241 -27.91394,-7.28534 -58.07138,8.14539 -68.49912,34.97412 -10.81463,27.82404 0.5011,59.25855 26.29071,73.0318 12.06327,6.44263 25.63532,8.09998 38.45768,12.13526 2.52719,0.79535 3.60449,-0.92261 4.81784,-2.53168 8.74368,-11.59576 18.53488,-22.24976 28.83023,-32.48083 19.14193,-19.02259 38.10769,-38.22254 57.27352,-57.22083 3.15494,-3.12738 2.59543,-4.11786 -1.42797,-5.14795 -14.35138,-3.67462 -28.64542,-7.57324 -43.36036,-11.47748 z m 18.50177,-327.55429 c -37.56381,3.95407 -58.54525,38.12308 -52.51129,68.67059 1.99472,10.09848 5.26142,19.94138 7.75983,29.94773 0.63885,2.55871 2.25217,2.87881 4.34747,3.15167 12.55866,1.63525 24.96521,4.03882 37.20054,7.34555 27.96273,7.55728 55.94409,15.04559 83.91421,22.57578 2.5473,0.68579 5.14429,2.00598 3.81976,-2.86798 -7.85913,-28.9195 -15.08923,-58.01996 -23.49286,-86.77848 -8.02185,-27.45193 -32.17178,-43.66577 -61.03766,-42.04486 z m 173.6681,-158.49359 v 6e-5 c 2.70996,0.2314 3.98107,-1.49419 5.38275,-2.85045 4.30542,-4.16588 8.63055,-8.29167 13.13605,-12.25812 20.20721,-17.78942 43.40625,-30.19255 68.92596,-38.26725 24.5805,-7.77755 49.7644,-9.91271 75.46539,-7.48822 20.77106,1.95941 40.71552,6.88209 59.62244,15.52455 37.6358,17.20356 66.88696,43.80589 87.38611,79.81366 21.29376,37.40339 29.36578,77.53639 23.38629,120.18245 -5.7442,40.96771 -22.93866,76.83627 -51.61945,106.54538 -31.35382,32.47784 -63.72876,63.96862 -95.64721,95.90106 -3.76612,3.76776 -4.67096,3.75537 -8.57935,-0.10748 -8.53143,-8.43207 -17.00464,-16.9234 -25.45221,-25.43958 -5.41693,-5.46094 -5.41907,-5.52466 0.10175,-11.05432 29.78173,-29.82947 59.60705,-59.61536 89.40826,-89.42535 5.18811,-5.18955 9.95502,-10.74622 14.38348,-16.57407 19.38404,-25.50897 29.11939,-54.29984 29.13269,-86.36112 0.008,-19.23782 -3.90252,-37.61688 -11.60571,-55.26235 -12.84063,-29.41401 -33.21563,-52.15796 -61.23102,-67.53367 -30.4317,-16.70184 -62.97924,-21.57994 -97.12268,-14.40735 -28.52533,5.99236 -52.80841,19.71074 -73.22216,40.40781 -1.60602,1.62831 -3.58838,3.17046 -2.85804,6.30502 1.31476,4.44233 4.65424,7.11921 7.18842,10.32914 2.63898,3.34243 4.59546,9.13251 8.33447,9.20401 3.646,0.0698 6.38544,-5.25846 9.43616,-8.29328 45.14709,-44.91281 117.03467,-44.34639 161.5,1.31437 41.42578,42.53945 42.90735,111.46499 2.03064,154.48391 -32.47888,34.18103 -66.43298,66.95923 -99.63745,100.45404 -2.4989,2.52069 -3.91156,1.95459 -5.9878,-0.26758 -3.8667,-4.13842 -8.22479,-7.84204 -11.86889,-12.15686 -3.06464,-3.62884 -6.16333,-4.19049 -10.46949,-2.66864 -4.85711,1.71653 -10.05212,2.48999 -14.88159,4.26758 -4.58789,1.68872 -5.90942,0.0119 -7.03643,-4.25149 C 681.69958,463.93594 670.35602,421.94769 659.12073,379.93066 647.30457,335.7413 625.10217,297.68915 590.30444,267.88452 536.73199,221.99901 474.58038,205.378 405.31851,218.25433 c -57.62936,10.71376 -103.71255,40.67468 -137.76245,88.4693 -25.84711,36.2807 -38.8056,77.03629 -40.12051,121.51495 -0.7462,25.24137 3.65348,49.74067 10.89891,73.80842 0.46072,1.53045 0.67477,3.3583 3.25952,2.06167 6.98942,-3.50622 14.07661,-6.81753 21.29976,-10.55978 1.64401,-2.37003 1.01208,-4.42938 0.41028,-6.55594 -7.42833,-26.24912 -10.19103,-52.82083 -6.08866,-79.98969 3.10816,-20.58447 8.77188,-40.38144 18.11078,-58.9494 12.56168,-24.97568 29.61649,-46.49084 51.46112,-64.10348 18.77042,-15.13401 39.77216,-26.08914 62.69418,-33.34842 25.92991,-8.21181 52.49524,-10.29991 79.45716,-7.27925 19.99203,2.23979 39.15866,7.51884 57.48205,15.9662 22.6988,10.46451 42.23993,25.06228 59.42109,43.17712 15.45312,16.29282 27.20477,34.84622 36.08209,55.33231 8.31665,19.19214 12.807,39.56589 18.23462,59.65021 8.29547,30.6968 16.49817,61.41854 24.74328,92.12881 1.73059,6.44583 1.25885,7.0383 -5.00531,8.76547 -11.87695,3.27478 -23.81317,6.32776 -35.70215,9.5575 -4.76953,1.29571 -5.7077,0.74261 -7.0401,-4.17328 -11.41082,-42.10004 -22.46044,-84.29767 -33.94372,-126.37738 -8.6604,-31.73563 -26.01209,-57.93671 -52.45935,-77.54566 -28.95972,-21.47171 -61.58454,-30.67288 -97.69336,-27.16461 -38.00204,3.6922 -69.75375,19.90122 -94.01779,49.05942 -32.09253,38.56567 -40.84842,82.72678 -27.75955,131.19531 0.6763,2.50434 1.53604,4.74347 4.3768,5.9191 6.63699,-1.02392 12.87307,-2.12683 19.15103,-2.88187 5.94659,-0.71524 6.12732,-0.60357 4.4404,-6.19638 -5.51285,-18.27737 -7.36563,-36.7102 -4.37729,-55.74871 10.39197,-66.20618 80.01895,-109.85575 144.1224,-89.64969 38.91092,12.26513 64.88407,38.36233 76.20505,77.47955 12.78211,44.16617 24.04065,88.77283 36.05017,133.16403 0.80322,2.96894 0.0964,4.20655 -2.85571,4.92768 -6.31012,1.5415 -12.51947,3.49505 -18.82868,5.04077 -2.78619,0.68261 -4.17358,2.09344 -4.82769,4.89074 -1.36518,5.83741 -3.3559,11.53955 -4.51459,17.41077 -0.88043,4.46112 -2.67651,5.01325 -6.85791,3.87402 -41.95941,-11.43139 -84.01386,-22.51434 -125.96729,-33.96746 -44.32629,-12.10089 -88.32074,-11.70411 -131.83316,3.38287 -86.89412,30.12872 -145.43206,108.22546 -147.96533,200.04602 -1.96919,71.375 25.92972,130.2359 80.52953,176.23773 27.45427,23.13092 59.46181,37.08185 94.14012,45.39301 2.55453,0.61224 3.58047,0.31769 3.76114,-2.57404 0.46698,-7.47607 1.2355,-14.93329 1.66763,-22.72827 -2.31943,-4.12811 -6.38876,-3.97656 -9.79913,-4.8421 -30.33185,-7.69831 -56.9827,-22.33942 -80.09659,-43.20703 -20.93216,-18.89789 -36.81142,-41.58924 -47.58266,-67.70594 -12.61839,-30.59552 -17.79861,-62.39178 -13.72075,-95.3283 3.45693,-27.92127 12.23601,-54.10444 27.14345,-78.18933 19.63613,-31.72461 46.02236,-55.75336 79.75603,-71.76642 28.94855,-13.74164 59.25607,-20.36658 91.38898,-18.74823 13.37139,0.6734 26.54309,2.3869 39.45114,5.69812 43.06747,11.04791 85.94192,22.83081 128.92541,34.20013 5.44989,1.44147 5.93701,2.11157 4.4234,7.77558 -3.2243,12.06555 -6.38269,24.15002 -9.79187,36.16571 -1.38336,4.87548 -2.20678,5.42376 -7.09961,4.21905 -9.5401,-2.34888 -19.009,-4.97498 -28.49011,-7.5509 -30.21097,-8.20795 -60.48565,-16.17865 -90.68561,-24.42835 -23.06481,-6.30072 -46.44214,-8.98645 -70.14749,-4.35052 -45.32422,8.86383 -79.1662,33.55408 -100.61891,74.55871 -14.04121,26.83832 -17.78767,55.58747 -13.79994,85.40204 2.07289,15.49805 7.26654,30.11969 14.47516,43.92279 8.15963,15.62415 19.05621,29.17108 32.35284,40.83295 17.78839,15.60126 38.32156,25.70367 61.16824,31.36188 1.82664,0.45245 3.64142,0.64154 5.40268,-1.12799 3.18296,-7.09107 6.00705,-14.01612 9.02082,-20.85767 1.00134,-2.27307 0.0378,-2.94452 -1.88455,-3.46283 -3.85715,-1.04004 -7.68229,-2.19806 -11.53266,-3.26398 -54.21954,-15.01086 -89.38707,-68.21112 -81.80011,-123.75555 8.82077,-64.57721 69.72662,-109.09625 133.76288,-95.7077 47.26285,9.88171 93.41165,24.58398 140.14981,36.78711 2.48415,0.64856 3.16785,1.81469 2.44995,4.30456 -1.84588,6.40247 -3.37964,12.896 -5.28143,19.2807 -0.82465,2.76868 -0.2771,4.67694 1.81622,6.63434 4.37995,4.09552 8.31195,8.69775 12.88251,12.5531 3.625,3.05756 2.79944,4.81775 -0.15607,7.75928 -32.71762,32.56311 -65.92062,64.66998 -97.77484,98.06171 -48.75311,51.10632 -69.0596,112.5227 -59.51993,182.46508 7.90467,57.9552 35.58426,105.8518 82.06278,141.6383 57.77466,44.4842 122.67956,56.6333 193.07538,38.2811 38.97882,-10.1618 71.97796,-30.923 100.17639,-59.5248 7.96222,-8.076 8.1051,-8.1075 -1.18939,-14.2147 -4.40442,-2.8942 -7.9303,-7.1925 -13.71576,-8.4873 -2.96778,0.3308 -4.33545,2.3905 -5.90912,4.0366 -7.84992,8.211 -16.47705,15.4722 -25.73016,22.0684 -42.25983,30.1256 -89.24244,41.7115 -140.41932,34.3337 -47.35711,-6.827 -87.07074,-28.7503 -117.65628,-65.6537 -36.2052,-43.6839 -50.55206,-94.0602 -42.92502,-150.45141 2.7703,-20.48249 9.16407,-39.89148 18.30622,-58.36969 9.46158,-19.12384 22.2435,-35.97907 37.1449,-51.09778 30.29632,-30.73816 60.94293,-61.13104 91.51153,-91.59979 3.82434,-3.81201 4.8067,-3.76221 8.6037,0.005 8.75391,8.685 17.44452,17.43372 26.17255,26.14484 5.09497,5.08527 5.09979,5.47278 -0.14917,10.72192 -31.22535,31.2273 -62.44336,62.46198 -93.68967,93.66821 -6.39084,6.38257 -12.09082,13.2732 -16.9516,20.88984 -21.60431,33.8529 -27.95102,70.5415 -19.10761,109.50716 5.9462,26.2001 18.88694,48.782 38.27066,67.7573 15.16828,14.8488 32.47059,25.806 52.48658,32.7072 21.79303,7.5137 44.02478,9.665 66.84649,6.3176 32.16175,-4.7175 59.23377,-19.203 81.91632,-42.246 1.41773,-1.4403 2.8172,-2.9182 2.31757,-5.5947 0.83643,-2.4154 -0.89819,-3.3919 -1.85095,-4.6317 -3.0445,-3.9618 -6.24463,-7.8045 -9.27374,-11.7776 -3.7475,-4.9155 -3.79841,-5.0451 -8.17133,-0.3866 -15.99115,17.0353 -34.70343,29.6609 -57.73505,34.8667 -44.97918,10.1667 -83.66839,-1.7327 -113.64874,-36.4707 -38.98227,-45.1685 -36.02133,-109.70449 5.54169,-152.55031 14.73212,-15.18683 29.89361,-29.95734 44.8681,-44.90888 16.97888,-16.95306 34.0661,-33.79974 50.86646,-50.92779 3.21484,-3.27753 5.08886,-3.216 7.82379,0.14679 2.09076,2.57074 5.07318,4.4591 6.96509,7.14056 5.31726,7.53613 11.81897,9.03754 20.06988,5.22827 2.67566,-1.23529 5.76953,-1.56128 8.66846,-2.31738 6.13873,-1.60113 6.13537,-1.60419 7.83227,4.72119 11.78382,43.92639 23.20002,87.95532 35.42737,131.75788 28.90833,103.55977 129.85864,170.88307 236.32605,157.67617 55.87842,-6.9314 102.7987,-31.5183 139.8683,-73.9502 30.0167,-34.35879 47.0754,-74.68947 52.2536,-119.98647 3.5933,-31.43427 -0.342,-62.1499 -9.5125,-92.29486 -0.3938,-1.29462 -0.4314,-3.67011 -2.6308,-2.51703 -7.1715,3.75958 -15.2237,5.72497 -22.0184,11.02716 -1.8995,3.565 -0.099,6.55603 0.7074,9.47937 6.8297,24.7442 8.4353,49.94244 5.1757,75.24268 -5.5677,43.21404 -24.1746,80.40899 -54.7392,111.35795 -17.8592,18.0837 -39.0299,31.5365 -62.56089,41.2285 -19.90289,8.1976 -40.69665,12.8366 -62.08111,13.9638 -26.54346,1.3988 -52.49133,-2.5731 -77.41998,-12.0078 -41.14588,-15.5724 -73.23999,-42.1573 -96.17304,-79.7587 -12.28204,-20.138 -19.49249,-42.20917 -25.37109,-64.87378 -9.6557,-37.22638 -19.87042,-74.30609 -29.69214,-111.48975 -1.46118,-5.53149 -0.98877,-6.51843 4.75,-8.02203 10.62958,-2.7851 21.28943,-5.46021 31.86786,-8.43213 9.7688,-2.74457 9.90948,-2.73847 12.52563,7.12048 11.01697,41.51673 21.76398,83.11176 33.47205,124.43549 11.17914,39.45685 35.22107,69.03058 71.74554,87.89952 22.61432,11.6827 46.75867,16.595 72.3501,15.047 13.45331,-0.8138 26.51025,-3.1352 39.03595,-7.6887 25.23175,-9.1725 46.66752,-23.84535 63.21522,-45.34889 29.8404,-38.77697 37.6849,-81.69085 24.6955,-128.64178 -0.5312,-1.91998 -1.0694,-3.91803 -3.796,-4.62817 -6.9964,0.79882 -13.5666,2.11676 -20.1844,2.4306 -5.0645,0.24017 -5.1548,2.15191 -3.9107,6.14172 5.2677,16.89435 7.3637,34.11505 5.0127,51.78943 -6.7516,50.75702 -45.30857,89.75501 -96.51645,97.50824 -48.51398,7.34535 -97.81781,-19.74548 -118.60742,-65.14233 -6.42737,-14.0351 -9.3819,-29.1308 -13.39655,-43.89136 -9.43884,-34.70374 -18.60107,-69.48285 -28.07965,-104.17554 -1.09723,-4.01629 -0.46521,-5.65521 3.69574,-6.50329 6.02564,-1.22797 11.91119,-3.1283 17.90308,-4.54493 2.57647,-0.60919 3.92749,-1.8706 4.54004,-4.49902 1.3598,-5.83465 3.27948,-11.54724 4.4599,-17.41248 0.89947,-4.46911 2.59143,-5.42041 7.10931,-4.18035 34.3512,9.42858 68.7995,18.50262 103.17676,27.83716 22.82275,6.1972 45.57007,12.98138 69.34033,14.17059 40.74761,2.03869 79.57151,-5.73114 115.78721,-24.88403 89.633,-47.40284 135.8617,-148.65406 110.9681,-245.89063 -16.6935,-65.20608 -55.9932,-113.27179 -116.0632,-144.02338 -16.6964,-8.54733 -34.576,-13.83136 -52.6812,-18.41864 -1.5904,-0.40295 -3.0375,-0.86453 -3.1379,1.53907 -0.333,7.9685 -2.0458,15.84317 -1.505,24.2423 1.0851,2.20038 2.881,2.58417 4.6613,3.10825 6.3892,1.88062 12.8317,3.61014 19.1152,5.81366 33.3232,11.68588 61.2347,31.18225 83.8304,58.3121 25.729,30.89197 40.3452,66.51514 43.6703,106.42109 2.3627,28.35406 -1.4285,56.15051 -11.7671,82.88708 -9.304,24.0614 -22.6748,45.47138 -40.4492,64.22723 -17.8164,18.80011 -38.8803,32.86267 -62.3909,43.28626 -20.5773,9.12311 -42.2621,14.22052 -64.7598,15.36011 -23.12373,1.17138 -45.72969,-1.64203 -68.12489,-7.93512 -39.75348,-11.17066 -79.74109,-21.50952 -119.59888,-32.31507 -5.20208,-1.41021 -5.74322,-2.2044 -4.41662,-7.39996 3.17199,-12.42303 6.55932,-24.7898 9.91552,-37.16467 1.12494,-4.14795 3.17511,-4.81934 6.93439,-3.75165 8.80884,2.50171 17.68653,4.75958 26.53021,7.13965 30.39069,8.17901 60.79798,16.29535 91.17115,24.54022 19.17309,5.20459 38.41943,8.66364 58.63292,6.72479 32.6074,-3.1275 60.7675,-15.59405 84.575,-37.70471 22.4063,-20.80933 36.1977,-46.7099 42.068,-76.64935 4.3982,-22.43054 3.0707,-44.69391 -3.6123,-66.6178 -7.5688,-24.82965 -21.1764,-45.72025 -40.1797,-63.35346 -18.035,-16.73461 -39.2152,-27.26071 -62.8436,-33.28329 -2.0873,-0.53207 -4.2822,-1.04507 -6.3778,1.04834 -2.4602,5.84561 -4.6171,11.43378 -6.8898,16.97452 -3.038,7.40689 -3.6236,6.54049 4.3958,8.47302 26.2899,6.33533 48.355,19.30917 65.3501,40.61868 30.384,38.09745 32.8504,90.26102 6.1231,132.21305 -24.9936,39.23083 -74.3973,59.37323 -120.24227,47.89978 -43.13764,-10.7959 -85.99713,-22.70294 -128.98096,-34.11359 -10.27142,-2.72668 -11.24664,-3.09967 -7.27167,-13.08649 4.7591,-11.9569 2.42566,-20.22497 -7.61236,-28.15722 -8.34412,-6.59363 -7.65381,-7.33026 -0.15296,-14.91706 33.27094,-33.6521 68.58747,-65.38806 99.8468,-100.89538 49.80274,-56.5708 66.98536,-122.92679 49.60816,-196.297 -15.01117,-63.38032 -52.52863,-111.08527 -110.09015,-142.1443 -43.10712,-23.25978 -89.24463,-30.6191 -137.52142,-22.77774 -48.61206,7.89583 -90.09973,29.78674 -124.24402,65.43997 -7.27936,7.60104 -7.51532,7.60449 1.31958,13.43991 4.36651,2.88409 7.92254,7.14937 13.77228,8.29213 z" />
    </clipPath>
  </defs>
  <g
     id="layer1"
     transform="translate(-29.897917,-22.754167)">
    <path
       fill="#4379d2"
       opacity="1"
       stroke="none"
       d="m 1256.6011,640.65344 c -14.8341,54.6706 -43.2893,100.39167 -85.6868,137.36292 -2.6215,2.28589 -3.2906,4.25885 -2.3766,7.69604 5.4332,20.42896 11.7183,40.65784 14.4861,61.72687 8.936,68.02118 -4.7076,131.22534 -42.5249,188.36423 -46.3444,70.0223 -112.2068,109.8809 -195.24035,121.2465 -41.30683,5.6543 -81.78351,1.2087 -121.16187,-12.3986 -5.09381,-1.7604 -8.0293,-0.7895 -11.61139,2.8694 -17.60297,17.9804 -35.33075,35.835 -56.14282,50.273 -37.25372,25.844 -78.33801,41.7342 -123.29749,47.2759 -67.53088,8.3239 -130.04568,-6.0973 -186.4111,-44.1047 -58.67148,-39.5623 -96.29608,-94.3861 -113.55383,-163.0808 -1.09455,-4.3569 -2.23337,-8.7359 -2.82541,-13.1746 -0.42703,-3.2017 -1.92181,-4.5165 -4.88306,-5.2813 -10.80957,-2.7918 -21.64261,-5.5369 -32.32693,-8.7628 -96.56908,-29.15732 -161.62043,-91.64426 -189.25272,-188.4318 -28.892569,-101.20208 -3.35539,-190.83648 68.44,-267.44476 4.89722,-5.22559 9.95124,-10.35413 15.71434,-14.63483 2.75939,-2.04962 2.9818,-4.08612 2.17806,-7.24127 -4.47649,-17.57312 -10.4448,-34.77704 -13.30826,-52.75076 -13.19476,-82.82239 5.13516,-158.17154 59.49084,-221.90625 71.51978,-83.86046 163.47751,-113.10333 271.44147,-92.09598 9.76419,1.89987 19.23203,5.44351 28.71939,8.58086 3.3382,1.10391 5.3963,0.55679 7.86316,-1.90198 15.92322,-15.87074 31.17707,-32.46285 49.34088,-45.94299 52.05884,-38.63515 110.47797,-57.689884 175.26551,-55.283939 110.90387,4.118508 204.82617,71.212919 245.58758,174.664639 5.9224,15.03102 10.7919,30.45604 13.4359,46.45485 0.6603,3.99622 2.4341,5.70774 6.3877,6.7468 21.7297,5.71109 43.6788,10.80853 64.3402,19.94266 74.9246,33.12304 126.0834,88.30044 152.8902,165.73278 17.6897,51.0972 18.4108,102.90793 5.0222,155.49991 z"
       id="path2"
       clip-path="url(#clipPath99)"
       style="display:inline"
       transform="matrix(0.1148559,0,0,0.1148559,19.31604,14.552402)" />
    <path
       fill="#64aceb"
       opacity="1"
       stroke="none"
       d="m 104.67392,141.11412 c 0.0167,0.19381 -0.0952,0.27668 -0.18764,0.37215 -4.92105,5.08202 -10.935476,7.59678 -17.976065,7.05053 -8.212076,-0.63715 -14.448173,-4.70953 -18.133358,-12.08995 -4.061815,-8.13472 -3.160734,-16.03657 2.076733,-23.44499 0.640453,-0.90592 1.416878,-1.70773 2.201965,-2.49369 3.583959,-3.58797 7.174259,-7.16964 10.746772,-10.768957 0.332798,-0.335307 0.514673,-0.35427 0.849873,-0.0078 1.197393,1.237677 2.417506,2.454077 3.654253,3.652487 0.311473,0.30182 0.300802,0.45786 -0.0028,0.75978 -3.623048,3.60297 -7.238564,7.21359 -10.840688,10.83747 -3.714864,3.7373 -5.342062,8.24191 -4.713603,13.47665 0.848831,7.07031 6.427124,12.72546 13.485336,13.69851 5.180243,0.71414 9.673987,-0.80871 13.477812,-4.3862 0.264797,-0.24903 0.51894,-0.50941 0.8119,-0.7839 0.23265,-0.01 0.40657,0.0565 0.53663,0.21248 1.15045,1.37926 2.50453,2.54359 3.881,3.68483 0.055,0.0456 0.081,0.12614 0.13188,0.23058 z"
       id="path4"
       style="stroke-width:0.114856" />
    <path
       fill="#64adeb"
       opacity="1"
       stroke="none"
       d="m 56.986507,122.15318 c -3.661645,-0.8001 -7.001909,-2.29529 -9.871985,-4.751 -4.272446,-3.6556 -6.877412,-8.25892 -7.688336,-13.82371 -1.352431,-9.280752 3.218238,-18.345142 11.488885,-22.730626 5.237014,-2.776921 10.769092,-3.317846 16.493601,-1.816021 4.924629,1.291976 9.838312,2.625675 14.76258,3.919053 0.47833,0.125638 0.540904,0.304726 0.414642,0.748877 -0.465656,1.637998 -0.908682,3.282974 -1.322644,4.934749 -0.11248,0.448818 -0.272841,0.522679 -0.709186,0.404101 -4.856163,-1.319631 -9.711957,-2.641441 -14.579952,-3.916479 -5.409547,-1.416891 -10.390399,-0.499488 -14.756725,3.042497 -7.328906,5.945229 -7.677404,17.278069 -0.807797,23.755359 2.128536,2.00698 4.627269,3.29122 7.439554,4.01234 0.14805,0.038 0.294592,0.0818 0.483703,0.13806 0.02937,0.16713 0.04766,0.32968 -2.64e-4,0.46951 -0.621954,1.81347 -1.002861,3.68416 -1.346036,5.61329 z"
       id="path5"
       style="stroke-width:0.114856" />
    <path
       fill="#64adeb"
       opacity="1"
       stroke="none"
       d="m 145.13511,109.30638 c 2.28265,7.47671 1.20488,14.42767 -3.57873,20.61581 -4.52422,5.85258 -10.66002,8.68753 -18.03086,8.54161 -9.99457,-0.19786 -18.26563,-6.75749 -20.91634,-16.40241 -1.37417,-5.00005 -2.681351,-10.01849 -4.03751,-15.02355 -0.11642,-0.42967 -0.0538,-0.59412 0.393086,-0.70428 1.669904,-0.41163 3.334904,-0.84564 4.990294,-1.31191 0.4411,-0.12424 0.58736,-0.0364 0.703,0.40086 1.2961,4.90003 2.61572,9.79385 3.9223,14.69112 1.76505,6.61565 6.94217,11.17172 13.65567,12.00895 7.44472,0.92843 14.72195,-3.76102 16.98789,-10.92074 1.02536,-3.23985 1.01279,-6.47173 0.0607,-9.71684 -0.0322,-0.10986 -0.0551,-0.22247 -0.087,-0.37899 0.38991,-0.3141 0.86484,-0.30893 1.30445,-0.4152 1.4284,-0.34527 2.83638,-0.7506 4.20169,-1.29839 0.12089,-0.0485 0.25771,-0.0573 0.43136,-0.086 z"
       id="path6"
       style="stroke-width:0.114856" />
    <path
       fill="#64adeb"
       opacity="1"
       stroke="none"
       d="m 49.52948,71.276468 c -1.055788,-3.315229 -1.482466,-6.697467 -0.910987,-10.139791 1.289608,-7.767992 5.365398,-13.604745 12.54352,-16.90932 7.961405,-3.66517 15.673776,-2.828163 22.787255,2.310953 4.199615,3.033998 6.819239,7.240265 8.180888,12.219614 1.337786,4.892117 2.623796,9.798381 3.955161,14.692278 0.131196,0.482256 0.05659,0.66406 -0.441114,0.787609 -1.652608,0.410274 -3.298679,0.850056 -4.934518,1.32261 -0.464453,0.134176 -0.58451,-0.0098 -0.694211,-0.422928 C 88.713866,70.235316 87.428293,65.328521 86.074298,60.440725 84.496416,54.744735 80.92511,50.861292 75.269401,49.051764 66.97607,46.398332 57.992651,51.16928 55.392607,59.533161 c -1.033468,3.324477 -0.925176,6.634576 0.124793,9.978298 -2.021628,0.460084 -4.001068,1.05665 -5.98792,1.765009 z"
       id="path7"
       style="stroke-width:0.114856" />
    <path
       fill="#64adeb"
       opacity="1"
       stroke="none"
       d="m 137.71735,58.449547 c 8.25816,1.943844 13.90647,6.860582 16.63783,14.893983 3.0512,8.974027 -0.1956,19.107444 -7.8704,24.645133 -5.91179,4.265577 -12.45927,5.387467 -19.51115,3.485307 -4.79736,-1.29402 -9.59444,-2.589195 -14.39687,-3.864106 -0.48488,-0.128722 -0.6356,-0.273904 -0.4811,-0.802092 0.47204,-1.613892 0.89292,-3.243262 1.30453,-4.873979 0.11122,-0.44068 0.24946,-0.566471 0.73192,-0.43524 5.07327,1.380046 10.13446,2.811799 15.23766,4.072779 7.67258,1.895888 15.27169,-1.853634 18.45584,-8.976384 3.86456,-8.644797 -0.72514,-18.783215 -9.78738,-21.613394 -0.56299,-0.175824 -1.1351,-0.322543 -1.74774,-0.493318 0.37555,-1.592943 0.88244,-3.153381 1.15341,-4.773734 0.0689,-0.411983 0.16338,-0.819677 0.27345,-1.264955 z"
       id="path8"
       style="stroke-width:0.114856" />
    <path
       fill="#64adeb"
       opacity="1"
       stroke="none"
       d="m 89.945658,39.385958 c 5.376333,-5.724403 11.975002,-8.326299 19.733092,-7.146184 9.46174,1.439268 15.68067,7.026236 18.23979,16.169402 2.28302,8.15667 0.0855,15.441501 -5.8098,21.526891 -3.56854,3.683593 -7.24839,7.259249 -10.86462,10.896915 -0.31591,0.317781 -0.48537,0.327533 -0.80112,0.0016 -1.19817,-1.237237 -2.41482,-2.457519 -3.65517,-3.652354 -0.34579,-0.333092 -0.28376,-0.507238 0.0205,-0.809225 3.59953,-3.573174 7.19194,-7.153553 10.7752,-10.743054 2.51916,-2.523556 4.14051,-5.519904 4.67376,-9.068668 0.68833,-4.580916 -0.39357,-8.733581 -3.28781,-12.320021 -6.07783,-7.531465 -16.96354,-8.067389 -23.834286,-1.248175 -0.203706,0.202179 -0.408033,0.403731 -0.645848,0.624729 -0.533411,-0.147955 -0.813848,-0.581845 -1.133179,-0.943308 -0.90883,-1.02875 -1.956231,-1.901301 -3.000589,-2.779869 -0.160219,-0.134781 -0.332327,-0.256214 -0.409882,-0.508563 z"
       id="path9"
       style="stroke-width:0.114856" />
  </g>
</svg>
